<svg xmlns="http://www.w3.org/2000/svg" style="display: none;"><symbol id="doctor" viewBox="0 0 512 512"><title>doctor</title><path d="M482.726,485.783l-22.65-132.603c-2.441-14.287-12.576-25.764-26.453-29.95l-61.092-18.433 c-1.265-14.934-7.388-29.023-17.578-40.175c-8.151-8.92-18.403-15.415-29.704-18.999c1.934-2.146,3.727-4.285,5.372-6.377 c14.528-18.477,22.306-38.833,24.286-52.724h4.713c12.258,0,22.231-9.972,22.231-22.231v-11.396 c0-8.181-4.602-15.594-11.523-19.441V106.05c0-4.141-3.357-7.498-7.498-7.498s-7.497,3.356-7.497,7.498v30.764 c-2.92,0.507-6.404,1.383-9.968,2.884c-0.365,0.133-0.72,0.287-1.056,0.472c-0.805,0.367-1.611,0.754-2.414,1.19V80.938 c0-16.693-13.58-30.273-30.273-30.273h-20.695c-7.138,0-14.111,2.487-19.637,7.005l-2.031,1.66c-3.73,3.05-8.438,4.73-13.257,4.73 c-4.819,0-9.528-1.68-13.258-4.73l-2.03-1.66c-5.526-4.517-12.499-7.005-19.637-7.005H200.38 c-16.693,0-30.273,13.58-30.273,30.273v60.422c-0.803-0.436-1.609-0.823-2.414-1.19c-0.336-0.185-0.69-0.339-1.055-0.472 c-3.564-1.501-7.049-2.377-9.968-2.884V59.025c0-24.278,19.752-44.03,44.03-44.03h110.601c24.279,0,44.03,19.752,44.03,44.03 v11.786c0,4.141,3.357,7.498,7.497,7.498s7.498-3.356,7.498-7.498V59.025C370.326,26.479,343.847,0,311.301,0H200.7 c-32.547,0-59.025,26.479-59.025,59.025v74.43c-6.921,3.847-11.523,11.259-11.523,19.441v11.396 c0,12.259,9.973,22.231,22.231,22.231h4.713c1.979,13.891,9.758,34.247,24.286,52.724c1.643,2.09,3.435,4.227,5.367,6.371 c-25.98,8.252-44.926,31.61-47.277,59.179L78.378,323.23c-13.877,4.186-24.013,15.663-26.453,29.95l-9.198,53.849 c-0.697,4.082,2.047,7.955,6.128,8.652c4.08,0.699,7.955-2.046,8.653-6.128l9.198-53.849c1.476-8.644,7.608-15.586,16.003-18.118 l56.505-17.049v14.831c-12.952,2.384-23.973,11.281-28.512,23.608c-1.205,3.272-1.954,6.698-2.226,10.182l-5.461,70.095 c-0.412,5.28,1.415,10.538,5.01,14.423c3.595,3.886,8.694,6.116,13.989,6.116h9.348c4.141,0,7.498-3.356,7.498-7.498 c0-4.142-3.357-7.497-7.498-7.497h-9.348c-1.129,0-2.215-0.474-2.982-1.304c-0.766-0.828-1.155-1.948-1.067-3.073l5.461-70.096 c0.165-2.111,0.618-4.186,1.348-6.167c3.158-8.575,11.686-14.382,21.223-14.449l1.235-0.009c0.058-0.001,0.115-0.001,0.172-0.001 c9.269,0,17.474,5.256,20.935,13.427c0.971,2.291,1.561,4.713,1.755,7.199l5.463,70.097c0.087,1.124-0.302,2.244-1.068,3.073 c-0.766,0.828-1.853,1.303-2.982,1.303h-9.348c-4.141,0-7.498,3.356-7.498,7.497c0,4.141,3.357,7.498,7.498,7.498h9.348 c5.295,0,10.395-2.229,13.989-6.116c3.596-3.887,5.423-9.144,5.011-14.422l-5.463-70.096c-0.32-4.102-1.295-8.101-2.898-11.884 c-4.939-11.657-15.5-19.762-27.938-21.955v-19.306l25.774-7.777c2.345,4.939,6.992,15.612,16.197,38.619 c9.277,23.214,20.808,52.969,31.867,81.895c0.079,0.243,0.17,0.48,0.272,0.712c7.38,19.311,14.539,38.225,20.662,54.541 c1.098,2.926,3.895,4.864,7.02,4.864c3.125,0,5.922-1.938,7.02-4.864c6.122-16.316,13.281-35.23,20.662-54.541 c0.103-0.232,0.193-0.47,0.272-0.712c11.051-28.909,22.576-58.645,31.849-81.852c9.217-23.037,13.868-33.719,16.214-38.662 l25.774,7.777v44.285c-17.858,3.469-31.385,19.219-31.385,38.077c0,21.391,17.403,38.795,38.795,38.795 c21.392,0,38.795-17.403,38.795-38.795c0-18.796-13.438-34.508-31.21-38.045v-39.792l56.506,17.049 c8.395,2.532,14.526,9.474,16.003,18.118l22.65,132.603c0.376,2.199-0.209,4.349-1.648,6.054c-1.438,1.704-3.459,2.644-5.69,2.644 H51.393c-2.231,0-4.251-0.939-5.69-2.644c-1.438-1.705-2.024-3.854-1.648-6.054l7.475-43.762c0.697-4.082-2.047-7.955-6.128-8.652 c-4.08-0.7-7.955,2.047-8.653,6.128l-7.475,43.762c-1.115,6.532,0.696,13.183,4.968,18.248C38.516,509.096,44.767,512,51.393,512 h409.214c6.626,0,12.878-2.904,17.151-7.969C482.03,498.966,483.841,492.315,482.726,485.783z M355.421,152.089 c3.995-0.996,7.202-0.978,7.238-0.977c1.292,0.017,2.548-0.285,3.664-0.87c0.334,0.831,0.531,1.724,0.531,2.654v11.396 c0,3.99-3.246,7.236-7.236,7.236h-4.197V152.089z M156.579,171.528L156.579,171.528h-4.197c-3.99,0-7.236-3.246-7.236-7.236 v-11.396c0-0.93,0.198-1.823,0.531-2.653c1.115,0.585,2.371,0.887,3.664,0.869c0.057,0.01,3.255-0.008,7.238,0.981V171.528z M171.574,179.935v-19.698c2.272,0.681,4.757,0.588,7.051-0.369c3.935-1.642,6.477-5.455,6.477-9.716V80.938 c0-8.424,6.854-15.278,15.278-15.278h20.695c3.688,0,7.291,1.285,10.146,3.619l2.03,1.66c6.401,5.234,14.48,8.115,22.749,8.115 c8.269,0,16.348-2.882,22.749-8.115l2.03-1.66c2.854-2.334,6.458-3.619,10.146-3.619h20.695c8.424,0,15.278,6.854,15.278,15.278 v69.215c0,4.26,2.542,8.074,6.477,9.716c1.314,0.548,2.69,0.814,4.054,0.814c1.017,0,2.026-0.149,2.997-0.439v19.691 c0,10.947-7.568,32.205-21.594,50.043c-4.646,5.909-10.618,12.257-17.971,17.805c-0.233,0.156-0.456,0.325-0.669,0.505 c-11.391,8.422-26.038,14.874-44.192,14.874s-32.801-6.452-44.193-14.875c-0.213-0.179-0.435-0.348-0.667-0.503 c-7.353-5.549-13.325-11.897-17.972-17.806C179.143,212.141,171.574,190.882,171.574,179.935z M305.12,301.07L256,337.784 l-49.12-36.714c4.871-6.191,7.6-14.138,7.6-21.23v-12.086c11.551,6.212,25.334,10.404,41.52,10.404s29.97-4.192,41.52-10.404 v12.086C297.52,286.932,300.249,294.879,305.12,301.07z M194.367,292.701c-4.004-1.525-8.443-1.775-12.642-0.636 c-0.184,0.043-0.364,0.092-0.539,0.144l-25.903,7.816c4.381-21.542,21.873-38.688,44.202-42.009v21.824 C199.485,284.544,197.385,289.407,194.367,292.701z M214.716,352.889c-0.014-0.035-0.028-0.07-0.041-0.104 c-0.38-0.961-0.755-1.909-1.127-2.846c-0.067-0.17-0.134-0.339-0.201-0.507c-0.364-0.917-0.725-1.827-1.081-2.722 c-0.025-0.063-0.05-0.125-0.075-0.189c-1.111-2.793-2.182-5.472-3.212-8.039c-0.075-0.186-0.15-0.375-0.225-0.56 c-0.296-0.736-0.587-1.461-0.876-2.177c-0.106-0.263-0.211-0.523-0.316-0.783c-0.28-0.694-0.558-1.384-0.832-2.059 c-0.082-0.202-0.162-0.398-0.243-0.599c-0.497-1.226-0.983-2.421-1.457-3.586c-0.128-0.315-0.259-0.636-0.386-0.947 c-0.186-0.454-0.367-0.896-0.549-1.341c-0.196-0.48-0.392-0.956-0.584-1.424c-0.072-0.175-0.147-0.36-0.219-0.534 c-0.058-0.14-0.111-0.269-0.168-0.408c-0.866-2.104-1.689-4.087-2.47-5.952c-0.006-0.015-0.013-0.03-0.019-0.045 c-0.416-0.993-0.823-1.963-1.214-2.887c-0.203-0.479-0.403-0.95-0.599-1.412l42.245,31.574l-17.652,7.499 c-0.031,0.013-0.063,0.026-0.094,0.04l-7.37,3.131C215.533,354.955,215.124,353.919,214.716,352.889z M232.606,398.797 c-1.481-3.843-2.973-7.708-4.468-11.569c-2.338-6.039-4.571-11.781-6.708-17.251l2.798-1.189l11.432,13.289L232.606,398.797z M256.145,459.735c-0.215-0.446-0.471-0.867-0.767-1.259c-3.388-8.955-7.688-20.286-12.447-32.753l7-38.325h12.138l7,38.325 C264.082,438.784,259.603,450.594,256.145,459.735z M264.881,372.404h-17.762l-8.405-9.77L256,355.291l17.286,7.343 L264.881,372.404z M283.862,387.228c-1.495,3.861-2.987,7.726-4.468,11.569l-3.054-16.721l11.432-13.289l2.798,1.189 C288.433,375.446,286.2,381.189,283.862,387.228z M312.58,315.18c-0.371,0.876-0.757,1.795-1.15,2.733 c-0.051,0.122-0.103,0.245-0.154,0.368c-0.389,0.93-0.785,1.88-1.195,2.869c-0.027,0.065-0.055,0.134-0.082,0.2 c-0.354,0.853-0.717,1.733-1.086,2.63c-0.069,0.168-0.134,0.323-0.203,0.492c-0.082,0.201-0.17,0.414-0.253,0.617 c-0.164,0.4-0.331,0.808-0.499,1.216c-0.206,0.503-0.411,1.004-0.622,1.519c-0.067,0.164-0.136,0.335-0.204,0.5 c-0.522,1.279-1.058,2.597-1.606,3.951c-0.086,0.212-0.171,0.42-0.257,0.635c-0.271,0.669-0.547,1.352-0.824,2.039 c-0.108,0.269-0.217,0.537-0.326,0.809c-0.286,0.709-0.575,1.427-0.867,2.155c-0.082,0.203-0.165,0.411-0.247,0.615 c-1.017,2.532-2.072,5.173-3.167,7.925c-0.036,0.091-0.072,0.18-0.108,0.272c-0.354,0.889-0.712,1.793-1.074,2.704 c-0.067,0.17-0.135,0.34-0.203,0.511c-0.374,0.942-0.751,1.894-1.133,2.861c-0.007,0.018-0.014,0.036-0.021,0.053 c-0.412,1.042-0.826,2.09-1.248,3.16l-7.377-3.134c-0.026-0.011-0.052-0.022-0.077-0.033l-17.662-7.503l42.245-31.574 C312.982,314.23,312.782,314.7,312.58,315.18z M330.814,292.21c-0.001,0-0.003-0.001-0.004-0.001 c-0.006-0.002-0.013-0.003-0.019-0.006c-4.35-1.305-8.99-1.089-13.157,0.498c-3.019-3.294-5.118-8.157-5.118-12.861v-21.835 c22.469,3.312,39.908,20.297,44.232,42.029L330.814,292.21z M389.001,398.375c0,13.124-10.677,23.8-23.8,23.8 s-23.8-10.676-23.8-23.8c0-13.124,10.677-23.8,23.8-23.8S389.001,385.251,389.001,398.375z"/></symbol><symbol id="medical-mask" viewBox="0 0 512 512"><title>medical-mask</title><path d="m350.183 435.428c-11.956-5.192-19.861-17.037-19.861-30.294v-38.448h-148.645v38.448c0 13.26-7.908 25.107-19.869 30.297l-3.17 43.569h194.724z" fill="#f6d190"/><path d="m181.677 366.686c21.572 13.509 46.993 21.443 74.323 21.443s52.751-7.934 74.323-21.443v-28.105h-148.646z" fill="#ecbd83"/><path d="m322.064 0h-107.354c-15.375 0-28.181 10.552-31.865 24.774l-75.49 198.194h297.29v-140.387c0-45.609-36.973-82.581-82.581-82.581z" fill="#966a5b"/><path d="m181.677 24.774h-16.516c-31.925 0-57.806 25.881-57.806 57.806v140.387h74.323v-198.193z" fill="#785353"/><path d="m421.126 229.894c-.701-13.397-12.726-23.442-26.141-23.442h-6.856c-13.682 0-24.774-11.092-24.774-24.774v-41.29c0-18.244-14.789-33.032-33.032-33.032h-148.646l-29.177 180.144 226.954-31.5h16.933c14.124 0 25.488-11.819 24.739-26.106z" fill="#ffe09f"/><path d="m181.677 247.742v-140.387c-18.244 0-33.032 14.789-33.032 33.032v41.29c0 13.682-11.092 24.774-24.774 24.774h-6.856c-13.415 0-25.439 10.045-26.141 23.442-.749 14.288 10.615 26.107 24.739 26.107h16.933l38.427 12.849c4.173.215 8.368.332 12.569.403-1.223-6.986-1.865-14.173-1.865-21.51z" fill="#f6d190"/><g><path d="m206.452 231.226c-4.565 0-8.258-3.694-8.258-8.258v-8.258c0-4.565 3.694-8.258 8.258-8.258s8.258 3.694 8.258 8.258v8.258c0 4.564-3.694 8.258-8.258 8.258z" fill="#6e4848"/></g><g><path d="m305.548 231.226c-4.565 0-8.258-3.694-8.258-8.258v-8.258c0-4.565 3.694-8.258 8.258-8.258 4.565 0 8.258 3.694 8.258 8.258v8.258c0 4.564-3.693 8.258-8.258 8.258z" fill="#6e4848"/></g><g><path d="m181.669 198.194c-3.702 0-7.065-2.5-8-6.258-1.113-4.419 1.581-8.903 6.008-10.008l33.032-8.258c4.411-1.121 8.903 1.581 10.008 6.008 1.113 4.419-1.581 8.903-6.008 10.008l-33.032 8.258c-.669.169-1.346.25-2.008.25z" fill="#785353"/></g><g><path d="m330.331 198.194c-.661 0-1.339-.081-2.008-.25l-33.032-8.258c-4.427-1.105-7.121-5.589-6.008-10.008 1.097-4.427 5.589-7.137 10.008-6.008l33.032 8.258c4.427 1.105 7.121 5.589 6.008 10.008-.936 3.758-4.299 6.258-8 6.258z" fill="#785353"/></g><path d="m371.063 189.953c-4.389.284-7.709 4.124-7.709 8.523v49.524c0 4.418-3.582 8-8 8h-173.395c-21.459 55 8.041 113.25 73.666 113.25 8.454 0 17.09 1.512 25.077-.11 36.909-7.492 67.957-31.428 85.103-63.78l9.818-24.587c2.224-7.968 3.669-16.255 4.247-24.774v-57.806c.001-4.742-3.997-8.551-8.807-8.24z" fill="#faf5dc"/><path d="m365.805 305.361c4.14-7.828 7.416-15.878 9.818-24.587h-189.464c-2.2-7.967-3.638-16.251-4.2-24.774h-25.314c-4.418 0-8-3.582-8-8v-49.524c0-4.398-3.319-8.239-7.709-8.523-4.81-.311-8.808 3.497-8.808 8.24v57.807c.579 8.519 2.024 16.806 4.247 24.773l9.832 24.613c20.861 39.338 62.278 66.227 109.792 66.227 8.463 0 16.719-.855 24.702-2.473-24.236-4.936-45.882-16.976-62.719-33.824 12.151 2.138 24.903 3.265 38.018 3.265 43.298 0 83.237-12.426 109.805-33.22zm-164.685 8.982c-3.457-5.412-6.498-11.112-9.095-17.053h156.585c-23.552 15.512-56.976 24.774-92.61 24.774-19.358 0-38.057-2.737-54.88-7.721z" fill="#f5ebcd"/><path d="m136.404 280.91c3.096 11.903 9.804 24.425 9.825 24.465 18.501 14.486 43.82 25.01 71.753 29.941-6.319-6.342-12.03-13.387-16.863-20.973-14.129-4.19-26.976-9.974-37.724-17.053h28.629c-2.322-5.317-4.299-10.842-5.866-16.516h-49.787c.014.046.021.09.033.136z" fill="#f4dbb3"/><path d="m439.272 463.466-55.607-17.377-127.665 51.411-127.665-51.411-55.607 17.377c-13.79 4.309-23.179 17.081-23.179 31.528 0 9.392 7.614 17.006 17.006 17.006h378.891c9.392 0 17.006-7.614 17.006-17.006 0-14.448-9.39-27.219-23.18-31.528z" fill="#dad8db"/><path d="m383.665 446.089-30.163-9.426c-1.129-.353-2.251-.772-3.319-1.235-22.72 26.657-56.413 43.54-94.183 43.54s-71.471-16.879-94.192-43.536c-1.068.463-2.181.878-3.31 1.231l-30.163 9.426c28.454 39.846 74.97 65.911 127.665 65.911s99.211-26.065 127.665-65.911z" fill="#eceaec"/></symbol><symbol id="meditation" viewBox="0 0 256 256"><title>meditation</title><path d="m227.051 212.019c.132.027.264.04.394.04.862 0 1.648-.56 1.91-1.413.694-2.256.44-4.5-.735-6.49-1.381-2.339-3.856-4.076-6.354-5.324l1.307-.713c1.373-.803 2.253-2.23 2.354-3.818s-.592-3.115-1.854-4.085c-1.143-.878-2.602-1.192-3.929-.878l-11.783 2.298-24.017-26.707c-.038-.042-.078-.083-.12-.123-1.598-1.496-2.514-3.609-2.514-5.799v-43.608c0-5.225-2.768-9.935-7.223-12.292-2.331-1.233-4.725-1.675-7.285-1.35l.013-.058-25.284-5.619v-9.725c8.058-7.747 13.446-21.264 13.446-33.149 0-10.05-4.041-19.019-10.33-24.849.202-.844.398-1.77.398-2.737 0-9.621-7.827-17.448-17.448-17.448s-17.448 7.827-17.448 17.448c0 1.049.22 1.921.438 2.701-6.312 5.829-10.369 14.815-10.369 24.885 0 11.885 5.388 25.402 13.446 33.149v9.726l-25.285 5.619.013.058c-2.563-.324-4.953.118-7.284 1.35-4.456 2.357-7.223 7.067-7.223 12.292v43.612c0 2.188-.915 4.3-2.511 5.796-.036.033-.07.068-.103.104l-24.957 27.08-9.514-1.656c-1.38-.305-2.815.012-3.94.877-1.261.97-1.954 2.497-1.854 4.084.084 1.335.721 2.558 1.738 3.391-2.775.934-5.538 2.416-7.032 4.759-.941 1.476-1.776 3.95-.414 7.356.308.771 1.052 1.258 1.856 1.257.13 0 .262-.013.393-.039l18.356-3.671c-4.592 2.4-11.269 7.365-11.481 16.028-.112 4.58 2.742 8.618 8.482 12.002 3.794 2.237 8.063 3.713 12.525 4.372-.918 1.437-1.28 3.193-.877 4.938.724 3.139 3.697 5.31 6.972 5.31.463 0 .932-.043 1.401-.133l34.123-6.551c3.711.064 55.189.958 84.645 1.203 14.129.104 24.823-2.276 31.851-7.115 5.385-3.708 8.499-8.989 8.545-14.49.046-5.444-5.979-10.332-7.827-11.7-2.312-1.712-4.872-3.177-7.777-4.443.955.322 1.926.603 2.92.802zm-54.436-105.377c3.142 1.663 5.094 5.018 5.094 8.756v43.608c0 3.261 1.353 6.411 3.714 8.657l24.72 27.489c.471.522 1.183.761 1.87.625l12.972-2.531c.227-.053.463-.003.648.14.284.218.31.508.3.661-.009.153-.071.438-.33.589l-4.174 2.28c-1.439-.446-2.515-.683-2.837-.75l-.817 3.916c2.476.52 9.352 2.631 11.403 6.111.286.486.463.974.532 1.479l-15.12-3.024c-4.465-.894-8.529-3.312-11.444-6.81-.129-.156-.281-.291-.452-.4-14.253-9.198-29.676-20.151-31.338-22.904-2.222-8.96-5.738-23.549-5.896-25.287-1.062-11.63.215-23.164 3.795-34.28l2.996-9.301c1.52-.096 2.937.22 4.364.976zm-44.618-94.472c7.384 0 13.392 5.982 13.443 13.354-3.974-2.613-8.559-4.112-13.443-4.112s-9.469 1.5-13.443 4.113c.05-7.373 6.059-13.355 13.443-13.355zm0 13.242c11.452 0 21 9.842 22.992 22.782-4.945-8.302-13.419-13.541-22.992-13.541-9.646 0-18.211 5.615-23.125 14.468 1.667-13.396 11.4-23.709 23.125-23.709zm-22.792 34.323c2.516-12.235 12.045-21.082 22.792-21.082 11.079 0 20.451 8.36 22.911 20.365-2.214 14.35-12.034 29.703-22.911 29.703-10.697.001-20.368-14.847-22.792-28.986zm22.792 32.987c3.508 0 6.855-1.168 9.933-3.168v17.08c0 5.478-4.456 9.934-9.933 9.934-5.478 0-9.934-4.456-9.934-9.934v-17.08c3.078 2 6.425 3.168 9.934 3.168zm0 27.845c7.683 0 13.933-6.25 13.933-13.934v-6.457l22.291 4.953-2.773 8.611c-2.792 8.671-4.244 17.585-4.344 26.601l-3.033 24.954h-52.15l-3.028-24.542c-.059-9.157-1.511-18.21-4.345-27.014l-2.773-8.611 22.29-4.953v6.457c-.002 7.684 6.248 13.935 13.932 13.935zm23.743 62.613h-48.365l-1.064-13.884h51.251zm-54.841-25.91 1.261 10.224 1.345 17.543-1.799 8.091-43.25 12.294c1.282-.739 2.499-1.593 3.627-2.561l2.503-2.146c7.021-4.67 29.494-19.865 31.609-24.331.056-.118.101-.242.132-.37.404-1.602 2.875-11.475 4.572-18.744zm-67.415 48.327c2.042-3.21 9.615-4.339 12.106-4.481l-.223-3.994c-.271.015-1.027.065-2.074.198l-3.566-1.692c-.264-.181-.32-.441-.329-.585-.01-.153.017-.443.3-.662.186-.142.42-.193.648-.139.038.009.077.017.116.023l10.639 1.852c.671.118 1.353-.115 1.813-.615l25.649-27.831c2.365-2.246 3.72-5.398 3.72-8.662v-43.612c0-3.739 1.952-7.094 5.093-8.756 1.428-.755 2.839-1.073 4.366-.977l2.995 9.301c3.58 11.117 4.857 22.651 3.796 34.281-.158 1.736-3.754 16.493-6.026 25.559-1.624 2.672-16.501 13.513-30.238 22.647-.067.045-.132.094-.194.147l-2.596 2.225c-2.597 2.226-5.742 3.757-9.095 4.428l-17.389 3.478c-.102-1.024.204-1.685.489-2.133zm15.852 27.336c-4.396-2.593-6.588-5.438-6.515-8.459.245-10.062 12.784-14.079 12.866-14.105l48.26-13.718c.707-.201 1.246-.773 1.405-1.49l1.774-7.98h48.927l2.726 8.178c.207.621.704 1.101 1.332 1.286l27.492 8.109-9.134.333-14.932-.665c-1.934-.092-3.771.712-5.029 2.188l-4.99 5.857c-.479.562-1.209.849-1.938.776l-55.719-5.774c-.195-.021-.392-.012-.585.025l-28.293 5.456.758 3.928 5.662-1.092c-1.193 3.442-2.009 8.1-1.733 11.552.328 4.099 1.164 7.082 1.903 9.025-1.506.188-2.918.364-4.217.525-7.086.883-14.198-.523-20.02-3.955zm105.855-7.887c-12.516 2.498-53.609 7.801-77.509 10.803-.639-1.431-1.664-4.333-2.024-8.83-.424-5.297 1.617-10.288 2.491-12.148l17.595-3.393 55.425 5.743c2.054.215 4.064-.596 5.396-2.161l4.989-5.857c.444-.522 1.121-.813 1.807-.786l15.013.668c.053.002.107.002.162 0l20.869-.76c.906-.019 1.676.649 1.749 1.557.061.764-.397 1.474-1.115 1.728-6.822 2.414-30.215 10.516-44.848 13.436zm-53.88 15.265c-.138-.003-.276.009-.412.035l-34.327 6.591c-1.704.325-3.373-.637-3.721-2.147-.309-1.34.547-2.667 2-3.127l4.749-.772c.083-.01.167-.02.25-.03 21.143-2.627 71.86-9.043 86.125-11.89 10.487-2.093 24.953-6.639 35.491-10.174.985 1.661 2.61 5.169 2.61 10.271 0 4.818-2.42 10.242-3.487 12.402-1.445.046-2.93.065-4.463.049-30.397-.256-84.275-1.199-84.815-1.208zm121.177-16.434c-.021 2.456-.933 7.18-6.813 11.229-4.811 3.313-11.716 5.364-20.554 6.103 1.303-3.001 2.956-7.685 2.956-12.144 0-5.33-1.533-9.266-2.765-11.574 2.379-.815 4.445-1.537 6.061-2.11 2.331-.825 3.853-3.067 3.784-5.52 4.433 1.468 8.042 3.281 11.124 5.563 3.732 2.765 6.227 6.161 6.207 8.453zm-21.739-19.417-38.505-11.358-2.706-8.118 2.287-17.428h-.002c.001-.006.003-.012.004-.019l1.249-10.273c1.661 7.186 4.063 16.89 4.455 18.47.032.129.077.254.134.375 2.182 4.605 25.176 19.726 32.609 24.529 2.179 2.546 4.871 4.599 7.867 6.038-2.257-.831-4.702-1.566-7.392-2.216z"/></symbol></svg>